<svg viewBox="0 0 800 500" xmlns="http://www.w3.org/2000/svg">
  <defs>
    <linearGradient id="counterCl" x1="0" y1="0" x2="0" y2="1">
      <stop offset="0%" stop-color="#f8f4ee"/>
      <stop offset="100%" stop-color="#c0bcae"/>
    </linearGradient>
    <linearGradient id="backsplashCl" x1="0" y1="0" x2="0" y2="1">
      <stop offset="0%" stop-color="#f4f0e4"/>
      <stop offset="100%" stop-color="#d0ccbc"/>
    </linearGradient>
    <linearGradient id="bottleBlueCl" x1="0" y1="0" x2="0" y2="1">
      <stop offset="0%" stop-color="#6abce0"/>
      <stop offset="50%" stop-color="#2a78b4"/>
      <stop offset="100%" stop-color="#1a4878"/>
    </linearGradient>
    <linearGradient id="bottleGreenCl" x1="0" y1="0" x2="0" y2="1">
      <stop offset="0%" stop-color="#6ad48a"/>
      <stop offset="50%" stop-color="#2a9844"/>
      <stop offset="100%" stop-color="#1a5a28"/>
    </linearGradient>
    <linearGradient id="bottleYellowCl" x1="0" y1="0" x2="0" y2="1">
      <stop offset="0%" stop-color="#fde088"/>
      <stop offset="50%" stop-color="#f8b820"/>
      <stop offset="100%" stop-color="#a87010"/>
    </linearGradient>
    <linearGradient id="glovesCl" x1="0" y1="0" x2="0" y2="1">
      <stop offset="0%" stop-color="#fdcc60"/>
      <stop offset="100%" stop-color="#c08820"/>
    </linearGradient>
    <linearGradient id="bucketCl" x1="0" y1="0" x2="0" y2="1">
      <stop offset="0%" stop-color="#d44a4a"/>
      <stop offset="100%" stop-color="#7a1818"/>
    </linearGradient>
    <linearGradient id="sudsCl" x1="0" y1="0" x2="0" y2="1">
      <stop offset="0%" stop-color="#fff"/>
      <stop offset="100%" stop-color="#dcecf0"/>
    </linearGradient>
    <linearGradient id="microCl" x1="0" y1="0" x2="0" y2="1">
      <stop offset="0%" stop-color="#a8d0e8"/>
      <stop offset="100%" stop-color="#5a8aaa"/>
    </linearGradient>
    <linearGradient id="capCl" x1="0" y1="0" x2="0" y2="1">
      <stop offset="0%" stop-color="#3a3a38"/>
      <stop offset="100%" stop-color="#0a0a08"/>
    </linearGradient>
    <radialGradient id="sparkleCl" cx="50%" cy="50%" r="50%">
      <stop offset="0%" stop-color="#fff"/>
      <stop offset="40%" stop-color="#fff8c8" stop-opacity="0.8"/>
      <stop offset="100%" stop-color="#fff8c8" stop-opacity="0"/>
    </radialGradient>
    <pattern id="tileCl" x="0" y="0" width="50" height="50" patternUnits="userSpaceOnUse">
      <rect width="50" height="50" fill="url(#backsplashCl)"/>
      <line x1="0" y1="0" x2="50" y2="0" stroke="#a89e88" stroke-width="0.6"/>
      <line x1="0" y1="0" x2="0" y2="50" stroke="#a89e88" stroke-width="0.6"/>
    </pattern>
    <filter id="shadowCl">
      <feGaussianBlur stdDeviation="3"/>
    </filter>
  </defs>

  <rect width="800" height="300" fill="url(#tileCl)"/>
  <rect width="800" height="300" fill="#fff" opacity="0.08"/>

  <g opacity="0.45" stroke="#fff" stroke-width="1.5" fill="none">
    <ellipse cx="60" cy="60" rx="40" ry="14" transform="rotate(-15 60 60)"/>
    <ellipse cx="60" cy="60" rx="36" ry="12" transform="rotate(-15 60 60)"/>
  </g>
  <g opacity="0.35" stroke="#fff" stroke-width="1.2" fill="none">
    <ellipse cx="600" cy="50" rx="50" ry="16" transform="rotate(10 600 50)"/>
    <ellipse cx="600" cy="50" rx="44" ry="12" transform="rotate(10 600 50)"/>
  </g>

  <g fill="url(#sparkleCl)">
    <circle cx="180" cy="80" r="22"/>
    <circle cx="180" cy="80" r="10"/>
    <circle cx="540" cy="120" r="20"/>
    <circle cx="540" cy="120" r="8"/>
    <circle cx="720" cy="150" r="18"/>
    <circle cx="720" cy="150" r="7"/>
  </g>
  <g fill="#fff" stroke="#fff" stroke-width="0.5">
    <path d="M 180 60 L 184 78 L 200 80 L 184 82 L 180 100 L 176 82 L 160 80 L 176 78 Z" opacity="0.9"/>
    <path d="M 540 102 L 543 117 L 558 120 L 543 123 L 540 138 L 537 123 L 522 120 L 537 117 Z" opacity="0.9"/>
    <path d="M 720 134 L 723 147 L 736 150 L 723 153 L 720 166 L 717 153 L 704 150 L 717 147 Z" opacity="0.9"/>
    <path d="M 300 220 L 302 230 L 312 232 L 302 234 L 300 244 L 298 234 L 288 232 L 298 230 Z" opacity="0.85"/>
    <path d="M 460 50 L 462 60 L 472 62 L 462 64 L 460 74 L 458 64 L 448 62 L 458 60 Z" opacity="0.85"/>
  </g>

  <rect x="0" y="290" width="800" height="20" fill="#7a7264"/>
  <rect x="0" y="290" width="800" height="6" fill="#9a9282"/>
  <rect x="0" y="290" width="800" height="2" fill="#fff" opacity="0.5"/>

  <rect x="0" y="310" width="800" height="190" fill="url(#counterCl)"/>
  <g stroke="#a89e88" stroke-width="0.5" opacity="0.35" fill="none">
    <path d="M 0 330 Q 100 328, 200 330 T 400 330 T 600 330 T 800 330"/>
    <path d="M 0 360 Q 100 362, 200 360 T 400 360 T 600 360 T 800 360"/>
    <path d="M 0 400 Q 100 398, 200 400 T 400 400 T 600 400 T 800 400"/>
    <path d="M 0 450 Q 100 452, 200 450 T 400 450 T 600 450 T 800 450"/>
  </g>
  <g fill="#a89e88" opacity="0.4">
    <circle cx="120" cy="380" r="0.6"/>
    <circle cx="240" cy="420" r="0.5"/>
    <circle cx="380" cy="350" r="0.6"/>
    <circle cx="480" cy="410" r="0.5"/>
    <circle cx="600" cy="440" r="0.6"/>
    <circle cx="700" cy="370" r="0.5"/>
  </g>
  <g fill="#fff" opacity="0.4">
    <ellipse cx="200" cy="330" rx="120" ry="6"/>
    <ellipse cx="540" cy="340" rx="100" ry="5"/>
  </g>

  <ellipse cx="220" cy="450" rx="80" ry="10" fill="#000" opacity="0.35" filter="url(#shadowCl)"/>

  <g transform="translate(220 360)">
    <ellipse cx="0" cy="88" rx="60" ry="8" fill="#0a0a08" opacity="0.4"/>
    <rect x="-40" y="-30" width="80" height="120" fill="url(#bottleBlueCl)"/>
    <ellipse cx="0" cy="-30" rx="40" ry="8" fill="#1a4878"/>
    <ellipse cx="0" cy="-32" rx="38" ry="6" fill="#3a8ac0"/>
    <rect x="-40" y="-30" width="80" height="120" rx="6" fill="none"/>
    <rect x="-40" y="-30" width="14" height="120" fill="#fff" opacity="0.25"/>
    <rect x="-36" y="-30" width="6" height="120" fill="#fff" opacity="0.45"/>
    <rect x="-40" y="86" width="80" height="6" fill="#1a4878"/>
    <rect x="-40" y="86" width="80" height="2" fill="#fff" opacity="0.4"/>
    <rect x="-38" y="0" width="76" height="32" fill="#fff" opacity="0.9"/>
    <rect x="-38" y="0" width="76" height="2" fill="#1a4878" opacity="0.6"/>
    <rect x="-38" y="30" width="76" height="2" fill="#1a4878" opacity="0.6"/>
    <text x="0" y="13" text-anchor="middle" font-family="Arial,sans-serif" font-size="11" font-weight="900" fill="#1a4878">SPARKLE</text>
    <text x="0" y="25" text-anchor="middle" font-family="Arial,sans-serif" font-size="6" font-weight="600" fill="#3a78b4">MULTI-SURFACE</text>

    <rect x="-12" y="-58" width="24" height="32" fill="url(#capCl)" stroke="#0a0a08" stroke-width="1"/>
    <rect x="-12" y="-58" width="24" height="3" fill="#5a5a58"/>
    <rect x="-10" y="-56" width="6" height="26" fill="#fff" opacity="0.3"/>
    <path d="M 12 -50 L 50 -42 L 56 -32 L 50 -22 L 12 -30 Z" fill="url(#capCl)" stroke="#0a0a08" stroke-width="1.5"/>
    <ellipse cx="50" cy="-36" rx="4" ry="6" fill="#1a1a18"/>
    <ellipse cx="50" cy="-36" rx="2" ry="3" fill="#0a0a08"/>
    <rect x="-1" y="-30" width="3" height="6" fill="url(#capCl)"/>

    <g transform="translate(48 -36)" fill="#a8e0ff" opacity="0.85">
      <path d="M 8 -2 Q 14 -3, 18 0 Q 14 2, 8 0 Z"/>
      <path d="M 12 -8 Q 16 -10, 18 -6 Q 14 -4, 12 -8 Z"/>
      <path d="M 12 8 Q 16 10, 18 6 Q 14 4, 12 8 Z"/>
    </g>
  </g>

  <g transform="translate(380 380)">
    <ellipse cx="0" cy="64" rx="40" ry="6" fill="#0a0a08" opacity="0.4"/>
    <rect x="-28" y="-20" width="56" height="80" fill="url(#bottleGreenCl)"/>
    <ellipse cx="0" cy="-20" rx="28" ry="6" fill="#1a5a28"/>
    <rect x="-28" y="-20" width="10" height="80" fill="#fff" opacity="0.25"/>
    <rect x="-26" y="-20" width="4" height="80" fill="#fff" opacity="0.45"/>
    <rect x="-28" y="58" width="56" height="4" fill="#1a5a28"/>
    <rect x="-26" y="0" width="52" height="22" fill="#fff" opacity="0.9"/>
    <text x="0" y="11" text-anchor="middle" font-family="Arial,sans-serif" font-size="8" font-weight="900" fill="#1a5a28">FRESH</text>
    <text x="0" y="19" text-anchor="middle" font-family="Arial,sans-serif" font-size="4" font-weight="600" fill="#2a9844">GLASS CLEANER</text>
    <rect x="-8" y="-32" width="16" height="14" fill="url(#capCl)"/>
    <rect x="-8" y="-32" width="16" height="2" fill="#5a5a58"/>
    <path d="M 8 -28 L 30 -22 L 36 -16 L 30 -10 L 8 -16 Z" fill="url(#capCl)"/>
    <ellipse cx="32" cy="-19" rx="3" ry="4" fill="#1a1a18"/>
  </g>

  <g transform="translate(500 400)">
    <ellipse cx="0" cy="52" rx="34" ry="5" fill="#0a0a08" opacity="0.4"/>
    <rect x="-22" y="-12" width="44" height="62" fill="url(#bottleYellowCl)"/>
    <ellipse cx="0" cy="-12" rx="22" ry="5" fill="#a87010"/>
    <rect x="-22" y="-12" width="8" height="62" fill="#fff" opacity="0.25"/>
    <rect x="-22" y="48" width="44" height="4" fill="#a87010"/>
    <rect x="-20" y="0" width="40" height="18" fill="#fff" opacity="0.9"/>
    <text x="0" y="11" text-anchor="middle" font-family="Arial,sans-serif" font-size="8" font-weight="900" fill="#a87010">POLISH</text>
    <rect x="-6" y="-22" width="12" height="12" fill="url(#capCl)"/>
  </g>

  <g transform="translate(640 380)">
    <ellipse cx="0" cy="76" rx="68" ry="8" fill="#0a0a08" opacity="0.4"/>
    <path d="M -50 -20 L 50 -20 L 56 76 L -56 76 Z" fill="url(#bucketCl)" stroke="#5a0a08" stroke-width="2"/>
    <ellipse cx="0" cy="-20" rx="50" ry="12" fill="#5a0a08"/>
    <ellipse cx="0" cy="-22" rx="46" ry="10" fill="#a82828"/>
    <path d="M -50 -20 L -56 76" fill="none" stroke="#fff" stroke-width="2" opacity="0.3"/>
    <path d="M -50 -20 L 50 -20 L 56 76 L -56 76 Z" fill="#fff" opacity="0.06"/>
    <path d="M -52 -20 Q -64 -28, -60 -40 Q -50 -50, -34 -42 L -34 -38 Q -46 -44, -52 -34 Q -54 -26, -48 -20 Z" fill="#5a0a08"/>
    <path d="M 52 -20 Q 64 -28, 60 -40 Q 50 -50, 34 -42 L 34 -38 Q 46 -44, 52 -34 Q 54 -26, 48 -20 Z" fill="#5a0a08"/>
    <g fill="url(#sudsCl)">
      <ellipse cx="-20" cy="-20" rx="14" ry="6"/>
      <ellipse cx="10" cy="-22" rx="18" ry="7"/>
      <ellipse cx="30" cy="-18" rx="10" ry="5"/>
      <circle cx="-28" cy="-28" r="6"/>
      <circle cx="-10" cy="-30" r="5"/>
      <circle cx="6" cy="-32" r="7"/>
      <circle cx="22" cy="-30" r="6"/>
      <circle cx="36" cy="-26" r="5"/>
      <circle cx="-20" cy="-36" r="4"/>
      <circle cx="14" cy="-38" r="5"/>
    </g>
    <g fill="#fff" opacity="0.7">
      <ellipse cx="-22" cy="-24" rx="3" ry="1.5"/>
      <ellipse cx="6" cy="-34" rx="3" ry="1.5"/>
      <ellipse cx="22" cy="-32" rx="2" ry="1"/>
    </g>
  </g>

  <g transform="translate(80 380) rotate(-12)">
    <rect x="-50" y="-30" width="100" height="60" rx="6" fill="url(#microCl)" stroke="#3a5a78" stroke-width="1"/>
    <g stroke="#3a5a78" stroke-width="0.4" opacity="0.5" fill="none">
      <line x1="-50" y1="-20" x2="50" y2="-20"/>
      <line x1="-50" y1="-10" x2="50" y2="-10"/>
      <line x1="-50" y1="0" x2="50" y2="0"/>
      <line x1="-50" y1="10" x2="50" y2="10"/>
      <line x1="-50" y1="20" x2="50" y2="20"/>
    </g>
    <rect x="-50" y="-30" width="100" height="6" fill="#fff" opacity="0.4"/>
    <g fill="#5a8aaa" opacity="0.5">
      <rect x="-48" y="-28" width="3" height="56"/>
      <rect x="-30" y="-28" width="3" height="56"/>
      <rect x="-10" y="-28" width="3" height="56"/>
      <rect x="10" y="-28" width="3" height="56"/>
      <rect x="30" y="-28" width="3" height="56"/>
    </g>
  </g>

  <g transform="translate(100 440) rotate(20)">
    <path d="M -40 -10 Q -40 -20, -30 -22 L 30 -22 Q 40 -20, 40 -10 L 38 18 Q 36 30, 24 32 L -24 32 Q -36 30, -38 18 Z" fill="url(#glovesCl)" stroke="#7a4a10" stroke-width="1.5"/>
    <rect x="-40" y="-22" width="80" height="6" fill="#a87010" opacity="0.8"/>
    <path d="M -10 -22 Q -10 -36, 0 -38 Q 10 -36, 10 -22" fill="url(#glovesCl)" stroke="#7a4a10" stroke-width="1.5"/>
    <path d="M -22 -22 Q -22 -34, -16 -36 Q -10 -34, -10 -22" fill="url(#glovesCl)" stroke="#7a4a10" stroke-width="1.5"/>
    <path d="M 10 -22 Q 10 -34, 16 -36 Q 22 -34, 22 -22" fill="url(#glovesCl)" stroke="#7a4a10" stroke-width="1.5"/>
    <path d="M -32 -16 Q -36 -28, -28 -32 Q -22 -30, -22 -22" fill="url(#glovesCl)" stroke="#7a4a10" stroke-width="1.5"/>
    <g fill="#fff" opacity="0.3">
      <ellipse cx="-20" cy="0" rx="6" ry="14"/>
    </g>
  </g>

  <g transform="translate(60 460) rotate(70)">
    <rect x="-2" y="-160" width="4" height="160" fill="#dadcd4"/>
    <rect x="-2" y="-160" width="2" height="160" fill="#fff" opacity="0.5"/>
    <ellipse cx="0" cy="0" rx="22" ry="32" fill="#f4f0e4"/>
    <g stroke="#a89e88" stroke-width="0.6" opacity="0.6">
      <line x1="-18" y1="-26" x2="-18" y2="26"/>
      <line x1="-12" y1="-30" x2="-12" y2="30"/>
      <line x1="-6" y1="-32" x2="-6" y2="32"/>
      <line x1="0" y1="-32" x2="0" y2="32"/>
      <line x1="6" y1="-32" x2="6" y2="32"/>
      <line x1="12" y1="-30" x2="12" y2="30"/>
      <line x1="18" y1="-26" x2="18" y2="26"/>
    </g>
    <ellipse cx="0" cy="-32" rx="22" ry="6" fill="#dadcd4"/>
    <rect x="-4" y="-170" width="8" height="14" rx="2" fill="#3a3a38"/>
  </g>

  <g fill="#fff" stroke="#fff" stroke-width="0.4" opacity="0.95">
    <path d="M 360 110 L 364 124 L 378 128 L 364 132 L 360 146 L 356 132 L 342 128 L 356 124 Z"/>
    <circle cx="360" cy="128" r="2.5"/>
    <path d="M 90 200 L 92 210 L 102 212 L 92 214 L 90 224 L 88 214 L 78 212 L 88 210 Z"/>
    <path d="M 680 70 L 683 82 L 695 85 L 683 88 L 680 100 L 677 88 L 665 85 L 677 82 Z"/>
    <path d="M 420 160 L 422 168 L 430 170 L 422 172 L 420 180 L 418 172 L 410 170 L 418 168 Z"/>
  </g>

  <ellipse cx="220" cy="350" rx="50" ry="4" fill="#fff" opacity="0.5"/>
  <ellipse cx="380" cy="368" rx="36" ry="3" fill="#fff" opacity="0.5"/>
  <ellipse cx="500" cy="388" rx="30" ry="3" fill="#fff" opacity="0.5"/>
  <ellipse cx="640" cy="370" rx="56" ry="4" fill="#fff" opacity="0.5"/>
</svg>
