<svg viewBox="0 0 800 500" xmlns="http://www.w3.org/2000/svg">
  <defs>
    <linearGradient id="skyLs" x1="0" y1="0" x2="0" y2="1">
      <stop offset="0%" stop-color="#8acbe2"/>
      <stop offset="100%" stop-color="#dcedf3"/>
    </linearGradient>
    <linearGradient id="lawnLs" x1="0" y1="0" x2="0" y2="1">
      <stop offset="0%" stop-color="#5a9a3a"/>
      <stop offset="100%" stop-color="#3a6e22"/>
    </linearGradient>
    <linearGradient id="lawnDk" x1="0" y1="0" x2="0" y2="1">
      <stop offset="0%" stop-color="#3a6e22"/>
      <stop offset="100%" stop-color="#244414"/>
    </linearGradient>
    <linearGradient id="trunkLs" x1="0" y1="0" x2="0" y2="1">
      <stop offset="0%" stop-color="#7a5230"/>
      <stop offset="100%" stop-color="#3a2010"/>
    </linearGradient>
    <linearGradient id="mulchLs" x1="0" y1="0" x2="0" y2="1">
      <stop offset="0%" stop-color="#4e2a18"/>
      <stop offset="100%" stop-color="#2a1408"/>
    </linearGradient>
    <linearGradient id="paverLs" x1="0" y1="0" x2="0" y2="1">
      <stop offset="0%" stop-color="#d8d2c0"/>
      <stop offset="100%" stop-color="#9a9282"/>
    </linearGradient>
    <radialGradient id="sunLs" cx="50%" cy="50%" r="50%">
      <stop offset="0%" stop-color="#fffadc"/>
      <stop offset="100%" stop-color="#fde088" stop-opacity="0"/>
    </radialGradient>
    <filter id="shadowLs">
      <feGaussianBlur stdDeviation="3"/>
    </filter>
  </defs>

  <rect width="800" height="500" fill="url(#skyLs)"/>
  <circle cx="600" cy="80" r="130" fill="url(#sunLs)"/>
  <circle cx="600" cy="80" r="34" fill="#fffadc"/>

  <g fill="#fff" opacity="0.92">
    <ellipse cx="180" cy="65" rx="58" ry="9"/>
    <ellipse cx="210" cy="58" rx="38" ry="7"/>
    <ellipse cx="420" cy="95" rx="64" ry="9"/>
    <ellipse cx="450" cy="89" rx="40" ry="7"/>
  </g>

  <g>
    <rect x="0" y="220" width="800" height="6" fill="#7a8870"/>
    <g fill="#d8d2c0" opacity="0.6">
      <rect x="40" y="222" width="80" height="2"/>
      <rect x="180" y="222" width="100" height="2"/>
      <rect x="340" y="222" width="60" height="2"/>
      <rect x="500" y="222" width="140" height="2"/>
      <rect x="700" y="222" width="60" height="2"/>
    </g>
  </g>

  <g fill="#244e1a" opacity="0.75">
    <ellipse cx="80" cy="200" rx="60" ry="38"/>
    <ellipse cx="55" cy="208" rx="38" ry="30"/>
    <ellipse cx="100" cy="210" rx="38" ry="28"/>
    <ellipse cx="80" cy="180" rx="36" ry="28"/>
    <ellipse cx="720" cy="195" rx="55" ry="36"/>
    <ellipse cx="700" cy="205" rx="36" ry="28"/>
    <ellipse cx="745" cy="205" rx="36" ry="28"/>
  </g>
  <g fill="#3a7028" opacity="0.7">
    <ellipse cx="80" cy="195" rx="40" ry="28"/>
    <ellipse cx="720" cy="190" rx="38" ry="28"/>
  </g>
  <rect x="78" y="220" width="6" height="8" fill="url(#trunkLs)"/>
  <rect x="718" y="220" width="6" height="8" fill="url(#trunkLs)"/>

  <g fill="#3a3a38" opacity="0.6">
    <rect x="170" y="180" width="120" height="46" rx="4"/>
    <rect x="510" y="180" width="120" height="46" rx="4"/>
    <rect x="350" y="172" width="120" height="54" rx="4"/>
  </g>
  <g fill="#5a5a58">
    <rect x="172" y="180" width="116" height="20" rx="3"/>
    <rect x="512" y="180" width="116" height="20" rx="3"/>
    <rect x="352" y="172" width="116" height="28" rx="3"/>
  </g>
  <g fill="#fff" opacity="0.7">
    <rect x="175" y="183" width="110" height="3"/>
    <rect x="515" y="183" width="110" height="3"/>
    <rect x="355" y="175" width="110" height="3"/>
  </g>

  <rect x="0" y="226" width="800" height="274" fill="url(#lawnLs)"/>

  <g fill="url(#lawnDk)" opacity="0.4">
    <rect x="0" y="240" width="800" height="14"/>
    <rect x="0" y="270" width="800" height="14"/>
    <rect x="0" y="305" width="800" height="14"/>
    <rect x="0" y="345" width="800" height="16"/>
    <rect x="0" y="390" width="800" height="18"/>
    <rect x="0" y="440" width="800" height="20"/>
  </g>
  <g fill="#7aaa55" opacity="0.4">
    <rect x="0" y="232" width="800" height="6"/>
    <rect x="0" y="256" width="800" height="8"/>
    <rect x="0" y="287" width="800" height="10"/>
    <rect x="0" y="324" width="800" height="12"/>
    <rect x="0" y="365" width="800" height="14"/>
    <rect x="0" y="412" width="800" height="16"/>
    <rect x="0" y="465" width="800" height="20"/>
  </g>
  <g stroke="#3a6020" stroke-width="0.3" opacity="0.4">
    <line x1="0" y1="245" x2="800" y2="245"/>
    <line x1="0" y1="275" x2="800" y2="275"/>
    <line x1="0" y1="310" x2="800" y2="310"/>
    <line x1="0" y1="350" x2="800" y2="350"/>
    <line x1="0" y1="395" x2="800" y2="395"/>
    <line x1="0" y1="450" x2="800" y2="450"/>
  </g>

  <g transform="translate(400 480)">
    <path d="M -180 -240 Q -200 -180, -160 -100 Q -100 -40, 0 0 Q 100 -40, 160 -100 Q 200 -180, 180 -240" fill="url(#paverLs)" stroke="#7a7060" stroke-width="0.5"/>
    <g fill="#aaa080" opacity="0.6">
      <ellipse cx="-130" cy="-180" rx="3" ry="2"/>
      <ellipse cx="-60" cy="-100" rx="4" ry="3"/>
      <ellipse cx="100" cy="-150" rx="3" ry="2"/>
      <ellipse cx="60" cy="-50" rx="4" ry="3"/>
    </g>
    <g stroke="#7a7060" stroke-width="1.2" fill="none">
      <path d="M -180 -240 Q -200 -180, -160 -100"/>
      <path d="M -160 -100 Q -100 -40, 0 0"/>
      <path d="M 0 0 Q 100 -40, 160 -100"/>
      <path d="M 160 -100 Q 200 -180, 180 -240"/>
      <path d="M -130 -220 Q -150 -160, -120 -90"/>
      <path d="M -120 -90 Q -70 -30, 0 -30"/>
      <path d="M 0 -30 Q 70 -30, 120 -90"/>
      <path d="M 120 -90 Q 150 -160, 130 -220"/>
    </g>
    <g stroke="#7a7060" stroke-width="0.8">
      <path d="M -155 -210 L -135 -210"/>
      <path d="M -145 -185 L -125 -185"/>
      <path d="M -135 -160 L -115 -160"/>
      <path d="M -120 -135 L -100 -135"/>
      <path d="M -100 -110 L -80 -110"/>
      <path d="M -75 -85 L -55 -85"/>
      <path d="M -45 -65 L -25 -65"/>
      <path d="M -15 -45 L 5 -45"/>
      <path d="M 145 -210 L 135 -210"/>
      <path d="M 135 -185 L 125 -185"/>
      <path d="M 125 -160 L 115 -160"/>
      <path d="M 110 -135 L 100 -135"/>
      <path d="M 95 -110 L 75 -110"/>
      <path d="M 75 -85 L 55 -85"/>
      <path d="M 45 -65 L 25 -65"/>
      <path d="M 15 -45 L -5 -45"/>
    </g>
  </g>

  <g transform="translate(230 380)">
    <path d="M -90 0 Q -100 -50, -50 -60 Q 0 -70, 60 -55 Q 100 -45, 90 0 Z" fill="url(#mulchLs)" stroke="#3a1808" stroke-width="1"/>
    <g fill="#1a0a04" opacity="0.6">
      <ellipse cx="-70" cy="-30" rx="3" ry="2"/>
      <ellipse cx="-50" cy="-45" rx="2" ry="1.5"/>
      <ellipse cx="-20" cy="-40" rx="3" ry="2"/>
      <ellipse cx="20" cy="-50" rx="2" ry="1.5"/>
      <ellipse cx="50" cy="-35" rx="3" ry="2"/>
      <ellipse cx="70" cy="-20" rx="2" ry="1.5"/>
      <ellipse cx="-40" cy="-15" rx="3" ry="2"/>
      <ellipse cx="40" cy="-10" rx="2.5" ry="1.5"/>
    </g>
    <g fill="#6a4020" opacity="0.7">
      <ellipse cx="-60" cy="-20" rx="2" ry="1.5"/>
      <ellipse cx="-30" cy="-30" rx="2.5" ry="1.5"/>
      <ellipse cx="10" cy="-25" rx="2" ry="1.5"/>
      <ellipse cx="55" cy="-50" rx="2" ry="1.5"/>
    </g>
    <g transform="translate(-50 -45)" fill="#d44a8a">
      <circle cx="0" cy="0" r="6"/>
      <circle cx="-4" cy="-3" r="4" fill="#f06ab0"/>
      <circle cx="0" cy="0" r="2" fill="#fde088"/>
      <rect x="-1" y="0" width="2" height="20" fill="#3a7028"/>
      <path d="M -1 8 L -6 14 L -1 12" fill="#3a7028"/>
      <path d="M 1 12 L 6 18 L 1 16" fill="#3a7028"/>
    </g>
    <g transform="translate(20 -52)" fill="#d44a4a">
      <circle cx="0" cy="0" r="5"/>
      <circle cx="-3" cy="-2" r="3" fill="#f06a6a"/>
      <circle cx="0" cy="0" r="1.5" fill="#fde088"/>
      <rect x="-1" y="0" width="2" height="22" fill="#3a7028"/>
    </g>
    <g transform="translate(-15 -38)" fill="#d4a020">
      <circle cx="0" cy="0" r="4"/>
      <circle cx="-2" cy="-1" r="2.5" fill="#fde088"/>
      <rect x="-1" y="0" width="2" height="18" fill="#3a7028"/>
    </g>
    <g transform="translate(50 -40)" fill="#8a4ad4">
      <circle cx="0" cy="0" r="5"/>
      <circle cx="-3" cy="-2" r="3" fill="#a86ae8"/>
      <rect x="-1" y="0" width="2" height="22" fill="#3a7028"/>
    </g>
    <g transform="translate(-75 -22)" fill="#fde088">
      <circle cx="0" cy="0" r="4"/>
      <circle cx="-2" cy="-1" r="2.5" fill="#fff4c0"/>
      <rect x="-1" y="0" width="2" height="14" fill="#3a7028"/>
    </g>
    <g transform="translate(70 -22)" fill="#fff">
      <circle cx="0" cy="0" r="4"/>
      <circle cx="-1" cy="-1" r="2" fill="#fde088"/>
      <rect x="-1" y="0" width="2" height="14" fill="#3a7028"/>
    </g>
  </g>

  <g transform="translate(580 360)">
    <rect x="-90" y="-20" width="180" height="60" fill="#2a5a2a" stroke="#1a3a1a" stroke-width="1"/>
    <rect x="-90" y="-20" width="180" height="8" fill="#3a7028"/>
    <g stroke="#1a3a1a" stroke-width="0.4">
      <line x1="-90" y1="-12" x2="90" y2="-12"/>
      <line x1="-90" y1="0" x2="90" y2="0"/>
      <line x1="-90" y1="12" x2="90" y2="12"/>
      <line x1="-90" y1="24" x2="90" y2="24"/>
      <line x1="-90" y1="36" x2="90" y2="36"/>
    </g>
    <g fill="#3a7028" opacity="0.7">
      <rect x="-90" y="-22" width="180" height="3"/>
    </g>
    <g stroke="#1a3a1a" stroke-width="0.8" fill="none">
      <path d="M -85 -20 Q -80 -28, -75 -20"/>
      <path d="M -65 -20 Q -60 -28, -55 -20"/>
      <path d="M -45 -20 Q -40 -28, -35 -20"/>
      <path d="M -25 -20 Q -20 -28, -15 -20"/>
      <path d="M -5 -20 Q 0 -28, 5 -20"/>
      <path d="M 15 -20 Q 20 -28, 25 -20"/>
      <path d="M 35 -20 Q 40 -28, 45 -20"/>
      <path d="M 55 -20 Q 60 -28, 65 -20"/>
      <path d="M 75 -20 Q 80 -28, 85 -20"/>
    </g>
  </g>

  <g transform="translate(120 420)">
    <ellipse cx="40" cy="36" rx="50" ry="6" fill="#000" opacity="0.4" filter="url(#shadowLs)"/>
    <rect x="0" y="-10" width="80" height="36" fill="#d43a3a" stroke="#1a1a18" stroke-width="2" rx="4"/>
    <rect x="0" y="-10" width="80" height="8" fill="#f86b6b"/>
    <rect x="60" y="-20" width="6" height="14" fill="#1a1a18"/>
    <ellipse cx="0" cy="26" rx="10" ry="10" fill="#1a1a18"/>
    <ellipse cx="80" cy="26" rx="10" ry="10" fill="#1a1a18"/>
    <circle cx="0" cy="26" r="4" fill="#6a6a6a"/>
    <circle cx="80" cy="26" r="4" fill="#6a6a6a"/>
    <rect x="10" y="0" width="20" height="20" fill="#1a1a18"/>
    <rect x="13" y="3" width="14" height="14" fill="#5a89a8"/>
    <text x="20" y="14" text-anchor="middle" font-family="Arial,sans-serif" font-size="7" font-weight="800" fill="#fff">GO</text>
    <path d="M 80 -10 Q 100 -30, 130 -30" stroke="#1a1a18" stroke-width="3" fill="none"/>
    <path d="M 130 -30 L 140 -25 L 140 -35 Z" fill="#1a1a18"/>
  </g>

  <g fill="#3a3a38" opacity="0.5">
    <rect x="120" y="60" width="3" height="160"/>
    <rect x="280" y="50" width="3" height="170"/>
    <rect x="450" y="55" width="3" height="165"/>
    <rect x="620" y="60" width="3" height="160"/>
  </g>
  <g stroke="#888" stroke-width="1.2" fill="none" opacity="0.7">
    <path d="M 121 80 L 281 78"/>
    <path d="M 121 100 L 281 98"/>
    <path d="M 281 80 L 451 78"/>
    <path d="M 281 100 L 451 98"/>
    <path d="M 451 80 L 621 78"/>
    <path d="M 451 100 L 621 98"/>
  </g>

  <g fill="#000" opacity="0.4">
    <ellipse cx="80" cy="232" rx="44" ry="6" filter="url(#shadowLs)"/>
    <ellipse cx="720" cy="232" rx="44" ry="6" filter="url(#shadowLs)"/>
  </g>

  <g stroke="#aaa" stroke-width="0.6" opacity="0.7" fill="none">
    <path d="M 480 350 L 482 280"/>
    <path d="M 482 280 L 490 270"/>
    <path d="M 490 270 L 488 268 L 492 268 L 490 266" fill="none"/>
  </g>
  <g fill="#aaa">
    <path d="M 484 270 L 496 270 L 490 264 Z" opacity="0.6"/>
    <path d="M 484 270 L 496 270 L 490 264 Z" fill="#fff" opacity="0.3"/>
  </g>
  <g fill="#bedceb" opacity="0.8">
    <ellipse cx="486" cy="268" rx="6" ry="3"/>
    <ellipse cx="495" cy="270" rx="4" ry="2"/>
    <ellipse cx="478" cy="270" rx="4" ry="2"/>
  </g>
</svg>
