<svg viewBox="0 0 800 500" xmlns="http://www.w3.org/2000/svg">
  <defs>
    <linearGradient id="wallP" x1="0" y1="0" x2="0" y2="1">
      <stop offset="0%" stop-color="#f0ecde"/>
      <stop offset="100%" stop-color="#c0b8a4"/>
    </linearGradient>
    <linearGradient id="floorP" x1="0" y1="0" x2="0" y2="1">
      <stop offset="0%" stop-color="#8a6e4a"/>
      <stop offset="100%" stop-color="#3a2a18"/>
    </linearGradient>
    <linearGradient id="chromeP" x1="0" y1="0" x2="0" y2="1">
      <stop offset="0%" stop-color="#fafafa"/>
      <stop offset="20%" stop-color="#a8a8a8"/>
      <stop offset="40%" stop-color="#dadada"/>
      <stop offset="50%" stop-color="#404040"/>
      <stop offset="60%" stop-color="#dadada"/>
      <stop offset="80%" stop-color="#a8a8a8"/>
      <stop offset="100%" stop-color="#f0f0f0"/>
    </linearGradient>
    <linearGradient id="chromeRing" x1="0" y1="0" x2="1" y2="0">
      <stop offset="0%" stop-color="#6a6a6a"/>
      <stop offset="50%" stop-color="#f0f0f0"/>
      <stop offset="100%" stop-color="#6a6a6a"/>
    </linearGradient>
    <linearGradient id="copperPP" x1="0" y1="0" x2="0" y2="1">
      <stop offset="0%" stop-color="#e8a878"/>
      <stop offset="40%" stop-color="#b8744a"/>
      <stop offset="60%" stop-color="#7e4424"/>
      <stop offset="100%" stop-color="#a85e34"/>
    </linearGradient>
    <linearGradient id="redBraid" x1="0" y1="0" x2="1" y2="0">
      <stop offset="0%" stop-color="#d04848"/>
      <stop offset="50%" stop-color="#6a1818"/>
      <stop offset="100%" stop-color="#d04848"/>
    </linearGradient>
    <linearGradient id="blueBraid" x1="0" y1="0" x2="1" y2="0">
      <stop offset="0%" stop-color="#4a8ad4"/>
      <stop offset="50%" stop-color="#1a467e"/>
      <stop offset="100%" stop-color="#4a8ad4"/>
    </linearGradient>
    <linearGradient id="dropP" x1="0" y1="0" x2="0" y2="1">
      <stop offset="0%" stop-color="#c8ecfd"/>
      <stop offset="60%" stop-color="#7ab6e8"/>
      <stop offset="100%" stop-color="#2a6cb8"/>
    </linearGradient>
    <pattern id="tilePP" x="0" y="0" width="80" height="80" patternUnits="userSpaceOnUse">
      <rect width="80" height="80" fill="url(#wallP)"/>
      <line x1="0" y1="0" x2="80" y2="0" stroke="#a89e88" stroke-width="0.8"/>
      <line x1="0" y1="0" x2="0" y2="80" stroke="#a89e88" stroke-width="0.8"/>
    </pattern>
    <filter id="shadowP">
      <feGaussianBlur stdDeviation="3"/>
    </filter>
  </defs>

  <rect width="800" height="500" fill="url(#tilePP)"/>

  <rect x="0" y="380" width="800" height="120" fill="url(#floorP)"/>
  <g stroke="#1a0e06" stroke-width="0.8" opacity="0.7" fill="none">
    <path d="M 0 395 Q 200 393, 400 395 T 800 395"/>
    <path d="M 0 415 Q 200 417, 400 415 T 800 415"/>
    <path d="M 0 435 Q 200 433, 400 435 T 800 435"/>
    <path d="M 0 458 Q 200 460, 400 458 T 800 458"/>
    <path d="M 0 478 Q 200 476, 400 478 T 800 478"/>
    <path d="M 100 380 Q 102 440, 100 500"/>
    <path d="M 220 380 Q 222 440, 220 500"/>
    <path d="M 350 380 Q 348 440, 350 500"/>
    <path d="M 480 380 Q 482 440, 480 500"/>
    <path d="M 590 380 Q 588 440, 590 500"/>
    <path d="M 700 380 Q 702 440, 700 500"/>
  </g>
  <g fill="#1a0e06" opacity="0.5">
    <rect x="0" y="378" width="800" height="3"/>
  </g>
  <g fill="#fff" opacity="0.04">
    <rect x="0" y="380" width="800" height="20"/>
  </g>

  <ellipse cx="400" cy="378" rx="220" ry="10" fill="#000" opacity="0.35" filter="url(#shadowP)"/>

  <rect x="180" y="60" width="440" height="130" fill="#fdfdfb"/>
  <rect x="180" y="60" width="440" height="6" fill="#9a9690"/>
  <ellipse cx="400" cy="186" rx="180" ry="22" fill="#a8a4a0"/>
  <ellipse cx="400" cy="184" rx="172" ry="18" fill="#fdfdfb"/>
  <ellipse cx="400" cy="184" rx="86" ry="11" fill="#241810"/>
  <ellipse cx="400" cy="184" rx="80" ry="9" fill="#0a0805"/>

  <rect x="178" y="60" width="6" height="130" fill="#fff" opacity="0.7"/>
  <rect x="180" y="60" width="440" height="3" fill="#fff" opacity="0.5"/>

  <rect x="386" y="184" width="28" height="60" fill="url(#chromeP)"/>
  <rect x="384" y="240" width="32" height="14" rx="3" fill="url(#chromeP)" stroke="#2a2a2a" stroke-width="1"/>
  <rect x="385" y="242" width="30" height="3" fill="#fff" opacity="0.5"/>
  <rect x="398" y="252" width="4" height="14" fill="#0a0805"/>

  <g fill="none" stroke="url(#chromeP)" stroke-width="24" stroke-linecap="round">
    <path d="M 400 260 L 400 300 Q 400 330, 370 330 L 320 330 Q 290 330, 290 300 L 290 250"/>
    <path d="M 400 260 L 400 300 Q 400 330, 430 330 L 470 330 Q 500 330, 500 300 L 500 250"/>
  </g>
  <g fill="none" stroke="url(#chromeRing)" stroke-width="4" opacity="0.7">
    <path d="M 400 260 L 400 300 Q 400 330, 370 330 L 320 330 Q 290 330, 290 300 L 290 250"/>
    <path d="M 400 260 L 400 300 Q 400 330, 430 330 L 470 330 Q 500 330, 500 300 L 500 250"/>
  </g>

  <circle cx="400" cy="262" r="16" fill="url(#chromeP)" stroke="#2a2a2a" stroke-width="1.5"/>
  <circle cx="400" cy="298" r="18" fill="url(#chromeP)" stroke="#2a2a2a" stroke-width="1.5"/>
  <circle cx="350" cy="330" r="16" fill="url(#chromeP)" stroke="#2a2a2a" stroke-width="1.5"/>
  <circle cx="450" cy="330" r="16" fill="url(#chromeP)" stroke="#2a2a2a" stroke-width="1.5"/>
  <circle cx="290" cy="270" r="15" fill="url(#chromeP)" stroke="#2a2a2a" stroke-width="1.5"/>
  <circle cx="510" cy="270" r="15" fill="url(#chromeP)" stroke="#2a2a2a" stroke-width="1.5"/>

  <rect x="278" y="245" width="24" height="22" fill="url(#chromeP)" stroke="#2a2a2a" stroke-width="1.5" rx="2"/>
  <rect x="498" y="245" width="24" height="22" fill="url(#chromeP)" stroke="#2a2a2a" stroke-width="1.5" rx="2"/>
  <rect x="280" y="248" width="4" height="14" fill="#fff" opacity="0.6"/>
  <rect x="500" y="248" width="4" height="14" fill="#fff" opacity="0.6"/>

  <g transform="translate(265 235)">
    <ellipse cx="0" cy="0" rx="22" ry="8" fill="#d04848" stroke="#5a1010" stroke-width="2"/>
    <rect x="-22" y="-8" width="44" height="4" fill="#d04848"/>
    <ellipse cx="0" cy="-8" rx="22" ry="3" fill="#e85a5a"/>
    <circle cx="0" cy="0" r="6" fill="#2a2a2a"/>
    <text x="0" y="3" text-anchor="middle" font-family="Arial,sans-serif" font-size="7" font-weight="800" fill="#fff">H</text>
    <rect x="-3" y="0" width="6" height="14" fill="url(#chromeP)"/>
  </g>

  <g transform="translate(535 235)">
    <ellipse cx="0" cy="0" rx="22" ry="8" fill="#4a8ad4" stroke="#1a467e" stroke-width="2"/>
    <rect x="-22" y="-8" width="44" height="4" fill="#4a8ad4"/>
    <ellipse cx="0" cy="-8" rx="22" ry="3" fill="#6aa0e0"/>
    <circle cx="0" cy="0" r="6" fill="#2a2a2a"/>
    <text x="0" y="3" text-anchor="middle" font-family="Arial,sans-serif" font-size="7" font-weight="800" fill="#fff">C</text>
    <rect x="-3" y="0" width="6" height="14" fill="url(#chromeP)"/>
  </g>

  <g>
    <rect x="290" y="180" width="14" height="55" fill="url(#redBraid)" rx="3"/>
    <g stroke="#3a0808" stroke-width="0.5" opacity="0.6">
      <line x1="290" y1="185" x2="304" y2="185"/>
      <line x1="290" y1="192" x2="304" y2="192"/>
      <line x1="290" y1="199" x2="304" y2="199"/>
      <line x1="290" y1="206" x2="304" y2="206"/>
      <line x1="290" y1="213" x2="304" y2="213"/>
      <line x1="290" y1="220" x2="304" y2="220"/>
      <line x1="290" y1="227" x2="304" y2="227"/>
      <line x1="294" y1="180" x2="294" y2="235"/>
      <line x1="300" y1="180" x2="300" y2="235"/>
    </g>
    <ellipse cx="297" cy="180" rx="9" ry="3" fill="url(#chromeP)" stroke="#2a2a2a" stroke-width="0.8"/>
  </g>
  <g>
    <rect x="506" y="180" width="14" height="55" fill="url(#blueBraid)" rx="3"/>
    <g stroke="#0a2040" stroke-width="0.5" opacity="0.6">
      <line x1="506" y1="185" x2="520" y2="185"/>
      <line x1="506" y1="192" x2="520" y2="192"/>
      <line x1="506" y1="199" x2="520" y2="199"/>
      <line x1="506" y1="206" x2="520" y2="206"/>
      <line x1="506" y1="213" x2="520" y2="213"/>
      <line x1="506" y1="220" x2="520" y2="220"/>
      <line x1="506" y1="227" x2="520" y2="227"/>
      <line x1="510" y1="180" x2="510" y2="235"/>
      <line x1="516" y1="180" x2="516" y2="235"/>
    </g>
    <ellipse cx="513" cy="180" rx="9" ry="3" fill="url(#chromeP)" stroke="#2a2a2a" stroke-width="0.8"/>
  </g>

  <g transform="translate(120 320)">
    <rect x="0" y="0" width="100" height="14" fill="url(#copperPP)" rx="2"/>
    <line x1="0" y1="2" x2="100" y2="2" stroke="#fff" stroke-width="1.5" opacity="0.4"/>
    <line x1="0" y1="11" x2="100" y2="11" stroke="#1a0a04" stroke-width="0.8" opacity="0.6"/>
    <circle cx="100" cy="7" r="9" fill="url(#copperPP)" stroke="#3a2010" stroke-width="1"/>
    <rect x="95" y="0" width="12" height="14" fill="url(#copperPP)" stroke="#3a2010" stroke-width="1"/>
  </g>

  <g transform="translate(610 350) rotate(18)">
    <rect x="0" y="-5" width="160" height="10" fill="#2a2a2a"/>
    <rect x="0" y="-5" width="160" height="3" fill="#6a6a6a"/>
    <rect x="0" y="-5" width="20" height="10" fill="#d4a020"/>
    <rect x="0" y="-5" width="20" height="3" fill="#fbe06a"/>
    <rect x="155" y="-18" width="44" height="38" rx="3" fill="#888" stroke="#1a1a18" stroke-width="1.5"/>
    <rect x="158" y="-13" width="36" height="14" fill="#2a2a2a"/>
    <rect x="158" y="-13" width="6" height="14" fill="#aaa"/>
    <rect x="158" y="-1" width="36" height="6" fill="#dadada"/>
    <rect x="158" y="5" width="36" height="14" fill="#2a2a2a"/>
    <circle cx="178" cy="-6" r="1.5" fill="#aaa"/>
    <text x="178" y="-3" text-anchor="middle" font-family="Arial,sans-serif" font-size="5" fill="#aaa"></text>
  </g>

  <g fill="url(#dropP)">
    <path d="M 350 348 Q 343 365, 350 378 Q 357 365, 350 348 Z"/>
    <path d="M 350 348 Q 343 365, 350 378 Q 357 365, 350 348 Z" stroke="#fff" stroke-width="0.5" opacity="0.5"/>
    <ellipse cx="348" cy="362" rx="2" ry="3" fill="#fff" opacity="0.7"/>
    <path d="M 330 372 Q 324 388, 330 398 Q 336 388, 330 372 Z" opacity="0.92"/>
    <ellipse cx="328" cy="384" rx="1.5" ry="2.5" fill="#fff" opacity="0.7"/>
    <path d="M 370 366 Q 364 382, 370 394 Q 376 382, 370 366 Z" opacity="0.9"/>
    <circle cx="340" cy="402" r="6" opacity="0.78"/>
    <ellipse cx="338" cy="400" rx="2" ry="1.5" fill="#fff" opacity="0.7"/>
    <circle cx="325" cy="410" r="3.5" opacity="0.7"/>
    <circle cx="365" cy="408" r="4" opacity="0.7"/>
    <circle cx="380" cy="402" r="2.5" opacity="0.7"/>
  </g>

  <g opacity="0.55" stroke="#fff" stroke-width="2" fill="none">
    <path d="M 220 95 L 240 115"/>
    <path d="M 234 95 L 246 110"/>
    <path d="M 560 95 L 580 115"/>
    <path d="M 574 95 L 586 110"/>
  </g>

  <ellipse cx="400" cy="184" rx="6" ry="4" fill="#0a0805"/>
  <path d="M 396 182 Q 400 178, 404 182" stroke="#3a2a20" stroke-width="0.8" fill="none"/>
</svg>
