<svg viewBox="0 0 800 500" xmlns="http://www.w3.org/2000/svg">
  <defs>
    <linearGradient id="skyPo" x1="0" y1="0" x2="0" y2="1">
      <stop offset="0%" stop-color="#6abad4"/>
      <stop offset="60%" stop-color="#bedceb"/>
      <stop offset="100%" stop-color="#fde0c0"/>
    </linearGradient>
    <linearGradient id="waterPo" x1="0" y1="0" x2="0" y2="1">
      <stop offset="0%" stop-color="#3a9ccc"/>
      <stop offset="50%" stop-color="#1e6ea0"/>
      <stop offset="100%" stop-color="#0a4070"/>
    </linearGradient>
    <linearGradient id="deckPo" x1="0" y1="0" x2="0" y2="1">
      <stop offset="0%" stop-color="#e8dcc0"/>
      <stop offset="100%" stop-color="#a08e6a"/>
    </linearGradient>
    <linearGradient id="copePo" x1="0" y1="0" x2="0" y2="1">
      <stop offset="0%" stop-color="#f0e8d4"/>
      <stop offset="100%" stop-color="#aa9c80"/>
    </linearGradient>
    <radialGradient id="sunPo" cx="50%" cy="50%" r="50%">
      <stop offset="0%" stop-color="#fff8d8"/>
      <stop offset="50%" stop-color="#fdd078" stop-opacity="0.5"/>
      <stop offset="100%" stop-color="#fdd078" stop-opacity="0"/>
    </radialGradient>
    <linearGradient id="trunkPo" x1="0" y1="0" x2="0" y2="1">
      <stop offset="0%" stop-color="#8a6240"/>
      <stop offset="100%" stop-color="#4a3220"/>
    </linearGradient>
    <linearGradient id="chairPo" x1="0" y1="0" x2="0" y2="1">
      <stop offset="0%" stop-color="#f8f6ee"/>
      <stop offset="100%" stop-color="#c0bcae"/>
    </linearGradient>
    <linearGradient id="umbrellaPo" x1="0" y1="0" x2="0" y2="1">
      <stop offset="0%" stop-color="#f86b4a"/>
      <stop offset="100%" stop-color="#a83820"/>
    </linearGradient>
    <pattern id="tilePoP" x="0" y="0" width="24" height="20" patternUnits="userSpaceOnUse">
      <rect width="24" height="20" fill="url(#copePo)"/>
      <line x1="24" y1="0" x2="24" y2="20" stroke="#8a7858" stroke-width="0.5"/>
      <line x1="0" y1="20" x2="24" y2="20" stroke="#8a7858" stroke-width="0.5"/>
    </pattern>
    <pattern id="ripplePo" x="0" y="0" width="40" height="22" patternUnits="userSpaceOnUse">
      <path d="M 0 11 Q 10 6, 20 11 T 40 11" fill="none" stroke="#fff" stroke-width="0.8" opacity="0.4"/>
    </pattern>
    <filter id="shadowPo">
      <feGaussianBlur stdDeviation="4"/>
    </filter>
  </defs>

  <rect width="800" height="500" fill="url(#skyPo)"/>
  <circle cx="640" cy="100" r="170" fill="url(#sunPo)"/>
  <circle cx="640" cy="100" r="46" fill="#fff8d8"/>

  <g fill="#fff" opacity="0.85">
    <ellipse cx="120" cy="80" rx="60" ry="10"/>
    <ellipse cx="150" cy="72" rx="42" ry="8"/>
    <ellipse cx="380" cy="60" rx="58" ry="9"/>
    <ellipse cx="400" cy="54" rx="36" ry="7"/>
    <ellipse cx="250" cy="115" rx="48" ry="8"/>
  </g>

  <g fill="#3a5a3a" opacity="0.85">
    <ellipse cx="80" cy="220" rx="32" ry="22"/>
    <ellipse cx="60" cy="225" rx="22" ry="18"/>
    <ellipse cx="105" cy="225" rx="22" ry="18"/>
    <ellipse cx="720" cy="215" rx="36" ry="24"/>
    <ellipse cx="700" cy="220" rx="22" ry="18"/>
    <ellipse cx="740" cy="220" rx="24" ry="18"/>
  </g>

  <g transform="translate(180 180)">
    <rect x="-4" y="0" width="8" height="80" fill="url(#trunkPo)"/>
    <g stroke="#3a2010" stroke-width="0.6" opacity="0.6">
      <path d="M -3 10 L 3 14"/>
      <path d="M -3 30 L 3 34"/>
      <path d="M -3 50 L 3 54"/>
      <path d="M -3 70 L 3 74"/>
    </g>
    <g fill="#2a5a2a">
      <path d="M -4 0 Q -50 -30, -90 -20 Q -60 -10, -4 4 Z"/>
      <path d="M -4 0 Q -40 -45, -65 -55 Q -45 -25, -2 -2 Z"/>
      <path d="M -4 0 Q -10 -50, 0 -78 Q 10 -50, 4 0 Z"/>
      <path d="M 4 0 Q 30 -45, 55 -50 Q 40 -25, 6 -2 Z"/>
      <path d="M 4 0 Q 50 -25, 88 -18 Q 60 -8, 4 4 Z"/>
      <path d="M -4 0 Q -30 5, -50 25 Q -28 12, -2 4 Z"/>
      <path d="M 4 0 Q 30 5, 50 25 Q 28 12, 4 4 Z"/>
    </g>
    <g fill="#1a3a1a" opacity="0.55">
      <path d="M -4 0 Q -40 -45, -65 -55 Q -45 -25, -2 -2 Z"/>
      <path d="M 4 0 Q 30 -45, 55 -50 Q 40 -25, 6 -2 Z"/>
    </g>
  </g>
  <g transform="translate(640 200)">
    <rect x="-5" y="0" width="10" height="100" fill="url(#trunkPo)"/>
    <g stroke="#3a2010" stroke-width="0.6" opacity="0.6">
      <path d="M -4 14 L 4 18"/>
      <path d="M -4 38 L 4 42"/>
      <path d="M -4 62 L 4 66"/>
      <path d="M -4 86 L 4 90"/>
    </g>
    <g fill="#2a5a2a">
      <path d="M -4 0 Q -56 -35, -100 -22 Q -68 -10, -4 4 Z"/>
      <path d="M -4 0 Q -44 -52, -75 -64 Q -48 -28, -2 -2 Z"/>
      <path d="M -4 0 Q -10 -58, 0 -88 Q 10 -58, 4 0 Z"/>
      <path d="M 4 0 Q 36 -52, 65 -58 Q 46 -28, 6 -2 Z"/>
      <path d="M 4 0 Q 56 -28, 100 -20 Q 68 -8, 4 4 Z"/>
    </g>
    <g fill="#1a3a1a" opacity="0.55">
      <path d="M -4 0 Q -44 -52, -75 -64 Q -48 -28, -2 -2 Z"/>
      <path d="M 4 0 Q 36 -52, 65 -58 Q 46 -28, 6 -2 Z"/>
    </g>
  </g>

  <rect x="0" y="220" width="800" height="80" fill="url(#deckPo)"/>
  <g stroke="#8a7858" stroke-width="0.6" opacity="0.6">
    <line x1="0" y1="240" x2="800" y2="240"/>
    <line x1="0" y1="260" x2="800" y2="260"/>
    <line x1="0" y1="280" x2="800" y2="280"/>
    <line x1="50" y1="220" x2="50" y2="300"/>
    <line x1="150" y1="220" x2="150" y2="300"/>
    <line x1="250" y1="220" x2="250" y2="300"/>
    <line x1="350" y1="220" x2="350" y2="300"/>
    <line x1="450" y1="220" x2="450" y2="300"/>
    <line x1="550" y1="220" x2="550" y2="300"/>
    <line x1="650" y1="220" x2="650" y2="300"/>
    <line x1="750" y1="220" x2="750" y2="300"/>
  </g>
  <g fill="#fff" opacity="0.15">
    <rect x="0" y="220" width="800" height="3"/>
  </g>

  <rect x="60" y="300" width="680" height="20" fill="url(#tilePoP)"/>
  <rect x="60" y="300" width="680" height="6" fill="#cdb88c"/>
  <rect x="60" y="306" width="680" height="2" fill="#fff" opacity="0.4"/>

  <rect x="60" y="320" width="680" height="160" fill="url(#waterPo)"/>
  <ellipse cx="400" cy="320" rx="345" ry="14" fill="#1a4870"/>
  <ellipse cx="400" cy="320" rx="345" ry="10" fill="#0a3060" opacity="0.6"/>

  <g fill="url(#ripplePo)">
    <rect x="60" y="325" width="680" height="22"/>
    <rect x="60" y="355" width="680" height="22"/>
    <rect x="60" y="385" width="680" height="22"/>
    <rect x="60" y="415" width="680" height="22"/>
    <rect x="60" y="445" width="680" height="22"/>
  </g>

  <g stroke="#bedceb" stroke-width="2" opacity="0.7">
    <line x1="120" y1="335" x2="170" y2="345"/>
    <line x1="220" y1="395" x2="270" y2="405"/>
    <line x1="380" y1="365" x2="420" y2="372"/>
    <line x1="540" y1="425" x2="590" y2="432"/>
    <line x1="680" y1="335" x2="720" y2="345"/>
    <line x1="150" y1="455" x2="200" y2="462"/>
  </g>

  <g fill="#fff" opacity="0.55">
    <ellipse cx="500" cy="340" rx="28" ry="3"/>
    <ellipse cx="320" cy="390" rx="22" ry="2.5"/>
    <ellipse cx="600" cy="395" rx="20" ry="2.5"/>
    <ellipse cx="200" cy="345" rx="18" ry="2"/>
    <ellipse cx="420" cy="455" rx="26" ry="3"/>
  </g>

  <g stroke="#fff" stroke-width="2.5" opacity="0.5">
    <line x1="180" y1="320" x2="180" y2="480"/>
    <line x1="320" y1="320" x2="320" y2="480"/>
    <line x1="460" y1="320" x2="460" y2="480"/>
    <line x1="600" y1="320" x2="600" y2="480"/>
  </g>

  <g transform="translate(715 285)">
    <rect x="0" y="0" width="6" height="115" fill="#e8e6e0"/>
    <rect x="20" y="0" width="6" height="115" fill="#e8e6e0"/>
    <rect x="0" y="0" width="2" height="115" fill="#fff" opacity="0.7"/>
    <rect x="20" y="0" width="2" height="115" fill="#fff" opacity="0.7"/>
    <line x1="0" y1="20" x2="26" y2="20" stroke="#e8e6e0" stroke-width="5"/>
    <line x1="0" y1="50" x2="26" y2="50" stroke="#e8e6e0" stroke-width="5"/>
    <line x1="0" y1="80" x2="26" y2="80" stroke="#e8e6e0" stroke-width="5"/>
    <path d="M 0 -8 Q 13 -22, 26 -8" fill="none" stroke="#e8e6e0" stroke-width="5" stroke-linecap="round"/>
    <path d="M 4 -6 Q 13 -16, 22 -6" fill="none" stroke="#fff" stroke-width="1.5" opacity="0.6"/>
  </g>

  <g transform="translate(140 250)">
    <ellipse cx="0" cy="20" rx="80" ry="6" fill="#000" opacity="0.4" filter="url(#shadowPo)"/>
    <rect x="-72" y="-12" width="144" height="12" fill="url(#chairPo)" stroke="#3a3a38" stroke-width="1"/>
    <rect x="-72" y="-12" width="144" height="3" fill="#fff" opacity="0.6"/>
    <g stroke="#3a3a38" stroke-width="0.5" opacity="0.5">
      <line x1="-50" y1="-12" x2="-50" y2="0"/>
      <line x1="-30" y1="-12" x2="-30" y2="0"/>
      <line x1="-10" y1="-12" x2="-10" y2="0"/>
      <line x1="10" y1="-12" x2="10" y2="0"/>
      <line x1="30" y1="-12" x2="30" y2="0"/>
      <line x1="50" y1="-12" x2="50" y2="0"/>
    </g>
    <rect x="-72" y="-40" width="50" height="28" rx="4" fill="url(#chairPo)" stroke="#3a3a38" stroke-width="1"/>
    <rect x="-66" y="-12" width="4" height="18" fill="#5a5a58"/>
    <rect x="-66" y="0" width="4" height="22" fill="#3a3a38"/>
    <rect x="62" y="-12" width="4" height="18" fill="#5a5a58"/>
    <rect x="62" y="0" width="4" height="22" fill="#3a3a38"/>
    <rect x="-66" y="20" width="4" height="2" fill="#1a1a18"/>
    <rect x="62" y="20" width="4" height="2" fill="#1a1a18"/>
  </g>

  <g transform="translate(440 250)">
    <ellipse cx="0" cy="20" rx="80" ry="6" fill="#000" opacity="0.4" filter="url(#shadowPo)"/>
    <rect x="-72" y="-12" width="144" height="12" fill="url(#chairPo)" stroke="#3a3a38" stroke-width="1"/>
    <rect x="-72" y="-12" width="144" height="3" fill="#fff" opacity="0.6"/>
    <rect x="-72" y="-40" width="50" height="28" rx="4" fill="url(#chairPo)" stroke="#3a3a38" stroke-width="1"/>
    <rect x="-66" y="-12" width="4" height="22" fill="#3a3a38"/>
    <rect x="62" y="-12" width="4" height="22" fill="#3a3a38"/>
  </g>

  <g transform="translate(560 240)">
    <ellipse cx="0" cy="80" rx="14" ry="3" fill="#000" opacity="0.5" filter="url(#shadowPo)"/>
    <rect x="-2" y="-100" width="4" height="180" fill="#3a3a38"/>
    <path d="M -80 -100 Q 0 -120, 80 -100 L 70 -90 Q 0 -106, -70 -90 Z" fill="url(#umbrellaPo)" stroke="#5a1a08" stroke-width="1.5"/>
    <g fill="#a83820">
      <path d="M -80 -100 L -40 -100 L -30 -90 L -70 -90 Z"/>
      <path d="M 0 -100 L 40 -100 L 50 -90 L 10 -90 Z"/>
    </g>
    <g stroke="#5a1a08" stroke-width="0.8" opacity="0.7">
      <line x1="-40" y1="-100" x2="-30" y2="-90"/>
      <line x1="0" y1="-100" x2="10" y2="-90"/>
      <line x1="40" y1="-100" x2="50" y2="-90"/>
      <line x1="-80" y1="-100" x2="-70" y2="-90"/>
      <line x1="80" y1="-100" x2="70" y2="-90"/>
    </g>
    <circle cx="0" cy="-118" r="4" fill="#3a3a38"/>
  </g>

  <g fill="#fff" opacity="0.4">
    <circle cx="280" cy="345" r="2"/>
    <circle cx="360" cy="395" r="3"/>
    <circle cx="440" cy="370" r="2"/>
    <circle cx="540" cy="425" r="3"/>
    <circle cx="640" cy="385" r="2"/>
  </g>
</svg>
