<svg viewBox="0 0 800 500" xmlns="http://www.w3.org/2000/svg">
  <defs>
    <linearGradient id="wallFl" x1="0" y1="0" x2="0" y2="1">
      <stop offset="0%" stop-color="#f0e8d4"/>
      <stop offset="100%" stop-color="#b8ad94"/>
    </linearGradient>
    <linearGradient id="oak1" x1="0" y1="0" x2="0" y2="1">
      <stop offset="0%" stop-color="#d09660"/>
      <stop offset="100%" stop-color="#8a5e30"/>
    </linearGradient>
    <linearGradient id="oak2" x1="0" y1="0" x2="0" y2="1">
      <stop offset="0%" stop-color="#b87a48"/>
      <stop offset="100%" stop-color="#6e4220"/>
    </linearGradient>
    <linearGradient id="oak3" x1="0" y1="0" x2="0" y2="1">
      <stop offset="0%" stop-color="#a06a3c"/>
      <stop offset="100%" stop-color="#5a3a1a"/>
    </linearGradient>
    <linearGradient id="oak4" x1="0" y1="0" x2="0" y2="1">
      <stop offset="0%" stop-color="#c08858"/>
      <stop offset="100%" stop-color="#784e28"/>
    </linearGradient>
    <linearGradient id="metalFl" x1="0" y1="0" x2="0" y2="1">
      <stop offset="0%" stop-color="#dadcd4"/>
      <stop offset="100%" stop-color="#6a6864"/>
    </linearGradient>
    <radialGradient id="lightFl" cx="50%" cy="40%" r="60%">
      <stop offset="0%" stop-color="#fff" stop-opacity="0.2"/>
      <stop offset="100%" stop-color="#fff" stop-opacity="0"/>
    </radialGradient>
    <filter id="shadowFl">
      <feGaussianBlur stdDeviation="3"/>
    </filter>
  </defs>

  <rect width="800" height="500" fill="#3a2818"/>

  <g transform="translate(400 250) rotate(-12) translate(-400 -250)">
    <g>
      <rect x="-50" y="80" width="240" height="48" fill="url(#oak1)" stroke="#3a2010" stroke-width="1.5"/>
      <rect x="190" y="80" width="220" height="48" fill="url(#oak2)" stroke="#3a2010" stroke-width="1.5"/>
      <rect x="410" y="80" width="200" height="48" fill="url(#oak3)" stroke="#3a2010" stroke-width="1.5"/>
      <rect x="610" y="80" width="240" height="48" fill="url(#oak4)" stroke="#3a2010" stroke-width="1.5"/>

      <rect x="-50" y="128" width="180" height="48" fill="url(#oak2)" stroke="#3a2010" stroke-width="1.5"/>
      <rect x="130" y="128" width="220" height="48" fill="url(#oak4)" stroke="#3a2010" stroke-width="1.5"/>
      <rect x="350" y="128" width="240" height="48" fill="url(#oak1)" stroke="#3a2010" stroke-width="1.5"/>
      <rect x="590" y="128" width="260" height="48" fill="url(#oak3)" stroke="#3a2010" stroke-width="1.5"/>

      <rect x="-50" y="176" width="220" height="48" fill="url(#oak3)" stroke="#3a2010" stroke-width="1.5"/>
      <rect x="170" y="176" width="200" height="48" fill="url(#oak1)" stroke="#3a2010" stroke-width="1.5"/>
      <rect x="370" y="176" width="240" height="48" fill="url(#oak2)" stroke="#3a2010" stroke-width="1.5"/>
      <rect x="610" y="176" width="240" height="48" fill="url(#oak4)" stroke="#3a2010" stroke-width="1.5"/>

      <rect x="-50" y="224" width="200" height="48" fill="url(#oak1)" stroke="#3a2010" stroke-width="1.5"/>
      <rect x="150" y="224" width="240" height="48" fill="url(#oak3)" stroke="#3a2010" stroke-width="1.5"/>
      <rect x="390" y="224" width="220" height="48" fill="url(#oak2)" stroke="#3a2010" stroke-width="1.5"/>
      <rect x="610" y="224" width="240" height="48" fill="url(#oak4)" stroke="#3a2010" stroke-width="1.5"/>

      <rect x="-50" y="272" width="240" height="48" fill="url(#oak2)" stroke="#3a2010" stroke-width="1.5"/>
      <rect x="190" y="272" width="200" height="48" fill="url(#oak4)" stroke="#3a2010" stroke-width="1.5"/>
      <rect x="390" y="272" width="240" height="48" fill="url(#oak3)" stroke="#3a2010" stroke-width="1.5"/>
      <rect x="630" y="272" width="220" height="48" fill="url(#oak1)" stroke="#3a2010" stroke-width="1.5"/>

      <rect x="-50" y="320" width="180" height="48" fill="url(#oak3)" stroke="#3a2010" stroke-width="1.5"/>
      <rect x="130" y="320" width="220" height="48" fill="url(#oak1)" stroke="#3a2010" stroke-width="1.5"/>
      <rect x="350" y="320" width="240" height="48" fill="url(#oak4)" stroke="#3a2010" stroke-width="1.5"/>
      <rect x="590" y="320" width="260" height="48" fill="url(#oak2)" stroke="#3a2010" stroke-width="1.5"/>

      <rect x="-50" y="368" width="240" height="48" fill="url(#oak4)" stroke="#3a2010" stroke-width="1.5"/>
      <rect x="190" y="368" width="220" height="48" fill="url(#oak3)" stroke="#3a2010" stroke-width="1.5"/>
      <rect x="410" y="368" width="200" height="48" fill="url(#oak1)" stroke="#3a2010" stroke-width="1.5"/>
      <rect x="610" y="368" width="240" height="48" fill="url(#oak2)" stroke="#3a2010" stroke-width="1.5"/>
    </g>

    <g stroke="#5a3818" stroke-width="0.4" opacity="0.7" fill="none">
      <path d="M 0 90 Q 50 92, 100 90 Q 150 88, 180 92"/>
      <path d="M 0 100 Q 50 99, 120 102 Q 150 100, 180 103"/>
      <path d="M 0 110 Q 60 108, 130 112 Q 160 110, 180 113"/>
      <path d="M 0 120 Q 70 122, 140 119 Q 165 121, 180 119"/>
      <path d="M 200 90 Q 280 92, 350 90 Q 380 88, 400 92"/>
      <path d="M 200 105 Q 280 107, 350 105 Q 380 103, 400 107"/>
      <path d="M 420 88 Q 500 90, 580 88 Q 600 92, 605 90"/>
      <path d="M 420 100 Q 500 98, 580 100 Q 600 102, 605 100"/>
      <path d="M 0 140 Q 60 138, 130 142 Q 165 140, 180 144"/>
      <path d="M 0 158 Q 70 160, 140 156 Q 165 158, 180 156"/>
      <path d="M 200 138 Q 280 140, 350 137 Q 380 142, 400 139"/>
      <path d="M 200 158 Q 280 156, 350 160 Q 380 158, 400 161"/>
      <path d="M 0 190 Q 80 188, 160 192 Q 200 190, 220 193"/>
      <path d="M 0 210 Q 80 212, 160 208 Q 200 210, 220 207"/>
      <path d="M 250 190 Q 320 192, 390 188 Q 410 190, 420 192"/>
      <path d="M 250 210 Q 320 208, 390 212 Q 410 210, 420 213"/>
      <path d="M 0 240 Q 80 238, 160 242 Q 200 240, 220 243"/>
      <path d="M 0 260 Q 80 262, 160 258 Q 200 260, 220 257"/>
      <path d="M 0 290 Q 80 292, 160 288 Q 200 290, 220 293"/>
      <path d="M 0 310 Q 80 308, 160 312 Q 200 310, 220 313"/>
      <path d="M 0 340 Q 80 342, 160 338 Q 200 340, 220 343"/>
      <path d="M 0 360 Q 80 358, 160 362 Q 200 360, 220 357"/>
      <path d="M 0 390 Q 80 388, 160 392 Q 200 390, 220 393"/>
      <path d="M 0 410 Q 80 412, 160 408 Q 200 410, 220 407"/>
    </g>

    <g fill="#3a2010" opacity="0.65">
      <ellipse cx="60" cy="105" rx="6" ry="3"/>
      <ellipse cx="40" cy="103" rx="4" ry="2"/>
      <ellipse cx="65" cy="106" rx="3" ry="1.5" fill="#1a0a04"/>
      <ellipse cx="240" cy="155" rx="7" ry="4"/>
      <ellipse cx="244" cy="156" rx="4" ry="2" fill="#1a0a04"/>
      <ellipse cx="320" cy="200" rx="6" ry="3"/>
      <ellipse cx="500" cy="250" rx="8" ry="4"/>
      <ellipse cx="504" cy="251" rx="4" ry="2" fill="#1a0a04"/>
      <ellipse cx="160" cy="290" rx="6" ry="3"/>
      <ellipse cx="420" cy="345" rx="7" ry="3"/>
      <ellipse cx="700" cy="200" rx="6" ry="3"/>
      <ellipse cx="680" cy="305" rx="8" ry="4"/>
      <ellipse cx="540" cy="395" rx="6" ry="3"/>
    </g>

    <g stroke="#5a3818" stroke-width="0.8" opacity="0.85">
      <line x1="190" y1="80" x2="190" y2="128"/>
      <line x1="410" y1="80" x2="410" y2="128"/>
      <line x1="610" y1="80" x2="610" y2="128"/>
      <line x1="130" y1="128" x2="130" y2="176"/>
      <line x1="350" y1="128" x2="350" y2="176"/>
      <line x1="590" y1="128" x2="590" y2="176"/>
      <line x1="170" y1="176" x2="170" y2="224"/>
      <line x1="370" y1="176" x2="370" y2="224"/>
      <line x1="610" y1="176" x2="610" y2="224"/>
      <line x1="150" y1="224" x2="150" y2="272"/>
      <line x1="390" y1="224" x2="390" y2="272"/>
      <line x1="610" y1="224" x2="610" y2="272"/>
      <line x1="190" y1="272" x2="190" y2="320"/>
      <line x1="390" y1="272" x2="390" y2="320"/>
      <line x1="630" y1="272" x2="630" y2="320"/>
      <line x1="130" y1="320" x2="130" y2="368"/>
      <line x1="350" y1="320" x2="350" y2="368"/>
      <line x1="590" y1="320" x2="590" y2="368"/>
      <line x1="190" y1="368" x2="190" y2="416"/>
      <line x1="410" y1="368" x2="410" y2="416"/>
      <line x1="610" y1="368" x2="610" y2="416"/>
    </g>

    <g stroke="#1a0a04" stroke-width="0.5" opacity="0.6">
      <line x1="-50" y1="128" x2="850" y2="128"/>
      <line x1="-50" y1="176" x2="850" y2="176"/>
      <line x1="-50" y1="224" x2="850" y2="224"/>
      <line x1="-50" y1="272" x2="850" y2="272"/>
      <line x1="-50" y1="320" x2="850" y2="320"/>
      <line x1="-50" y1="368" x2="850" y2="368"/>
    </g>
  </g>

  <rect x="0" y="0" width="800" height="500" fill="url(#lightFl)"/>

  <g opacity="0.18" fill="#fff">
    <path d="M 0 0 L 800 0 L 800 90 L 0 240 Z"/>
  </g>

  <g transform="translate(560 380) rotate(28)">
    <rect x="0" y="-3" width="160" height="6" fill="#d8d6d0"/>
    <rect x="0" y="-3" width="160" height="2" fill="#fff" opacity="0.6"/>
    <g stroke="#1a1a1a" stroke-width="0.7">
      <line x1="6" y1="-3" x2="6" y2="3"/>
      <line x1="14" y1="-3" x2="14" y2="2"/>
      <line x1="22" y1="-3" x2="22" y2="2"/>
      <line x1="30" y1="-3" x2="30" y2="2"/>
      <line x1="38" y1="-3" x2="38" y2="3"/>
      <line x1="46" y1="-3" x2="46" y2="2"/>
      <line x1="54" y1="-3" x2="54" y2="2"/>
      <line x1="62" y1="-3" x2="62" y2="2"/>
      <line x1="70" y1="-3" x2="70" y2="3"/>
      <line x1="78" y1="-3" x2="78" y2="2"/>
      <line x1="86" y1="-3" x2="86" y2="2"/>
      <line x1="94" y1="-3" x2="94" y2="2"/>
      <line x1="102" y1="-3" x2="102" y2="3"/>
      <line x1="110" y1="-3" x2="110" y2="2"/>
      <line x1="118" y1="-3" x2="118" y2="2"/>
      <line x1="126" y1="-3" x2="126" y2="2"/>
      <line x1="134" y1="-3" x2="134" y2="3"/>
      <line x1="142" y1="-3" x2="142" y2="2"/>
      <line x1="150" y1="-3" x2="150" y2="2"/>
    </g>
    <rect x="160" y="-12" width="42" height="24" rx="3" fill="#d4302a"/>
    <rect x="160" y="-12" width="42" height="6" fill="#f86b6b"/>
    <text x="181" y="3" text-anchor="middle" font-family="Arial,sans-serif" font-size="7" font-weight="800" fill="#fff">STANLEY</text>
    <rect x="155" y="-4" width="6" height="8" fill="#1a1a1a"/>
  </g>

  <g transform="translate(160 80) rotate(28)">
    <rect x="0" y="-6" width="180" height="50" fill="url(#metalFl)" stroke="#3a3a38" stroke-width="2"/>
    <rect x="0" y="-6" width="180" height="6" fill="#fff" opacity="0.4"/>
    <rect x="20" y="0" width="120" height="38" fill="#d4a020" stroke="#3a3a38" stroke-width="1"/>
    <rect x="20" y="0" width="120" height="6" fill="#fde088"/>
    <text x="80" y="22" text-anchor="middle" font-family="Arial,sans-serif" font-size="11" font-weight="800" fill="#3a2810">PRO 16 GA</text>
    <rect x="160" y="38" width="14" height="22" rx="2" fill="#1a1a18"/>
    <rect x="148" y="46" width="50" height="6" fill="#1a1a18"/>
    <rect x="0" y="40" width="20" height="44" fill="#3a3a38"/>
    <rect x="3" y="44" width="14" height="40" fill="#5a5a58"/>
  </g>

  <g transform="translate(60 380) rotate(70)">
    <ellipse cx="0" cy="0" rx="6" ry="3" fill="#a87010"/>
    <rect x="-2" y="-30" width="4" height="30" fill="#dadcd4"/>
    <rect x="-2" y="-30" width="2" height="30" fill="#fff" opacity="0.5"/>
    <path d="M -2 -32 L 2 -32 L 0 -34 Z" fill="#dadcd4"/>
  </g>
  <g transform="translate(100 400) rotate(45)">
    <ellipse cx="0" cy="0" rx="5" ry="3" fill="#a87010"/>
    <rect x="-1.5" y="-25" width="3" height="25" fill="#dadcd4"/>
  </g>

  <g fill="#5a3818" opacity="0.75">
    <circle cx="200" cy="450" r="1.5"/>
    <circle cx="250" cy="440" r="1"/>
    <circle cx="290" cy="455" r="1.2"/>
    <circle cx="340" cy="448" r="1"/>
    <circle cx="380" cy="453" r="1.4"/>
    <circle cx="430" cy="442" r="1"/>
    <circle cx="470" cy="455" r="1.2"/>
    <circle cx="500" cy="448" r="1"/>
    <circle cx="540" cy="453" r="1.3"/>
  </g>

  <g fill="#000" opacity="0.4">
    <ellipse cx="640" cy="408" rx="68" ry="6" filter="url(#shadowFl)"/>
    <ellipse cx="240" cy="115" rx="80" ry="8" filter="url(#shadowFl)"/>
  </g>
</svg>
