<svg viewBox="0 0 800 500" xmlns="http://www.w3.org/2000/svg">
  <defs>
    <linearGradient id="skyGC" x1="0" y1="0" x2="0" y2="1">
      <stop offset="0%" stop-color="#f7c477"/>
      <stop offset="40%" stop-color="#f0967a"/>
      <stop offset="100%" stop-color="#b86a72"/>
    </linearGradient>
    <linearGradient id="groundGC" x1="0" y1="0" x2="0" y2="1">
      <stop offset="0%" stop-color="#8a7458"/>
      <stop offset="100%" stop-color="#3a2c1a"/>
    </linearGradient>
    <linearGradient id="lumberGC" x1="0" y1="0" x2="0" y2="1">
      <stop offset="0%" stop-color="#e0b878"/>
      <stop offset="100%" stop-color="#a07a48"/>
    </linearGradient>
    <linearGradient id="hatGC" x1="0" y1="0" x2="0" y2="1">
      <stop offset="0%" stop-color="#fde088"/>
      <stop offset="60%" stop-color="#f8c020"/>
      <stop offset="100%" stop-color="#a87010"/>
    </linearGradient>
    <linearGradient id="concreteGC" x1="0" y1="0" x2="0" y2="1">
      <stop offset="0%" stop-color="#a8a49c"/>
      <stop offset="100%" stop-color="#5a5650"/>
    </linearGradient>
    <linearGradient id="metalGC" x1="0" y1="0" x2="0" y2="1">
      <stop offset="0%" stop-color="#d8d6d0"/>
      <stop offset="100%" stop-color="#6a6864"/>
    </linearGradient>
    <pattern id="grainGC" x="0" y="0" width="60" height="6" patternUnits="userSpaceOnUse">
      <rect width="60" height="6" fill="url(#lumberGC)"/>
      <line x1="0" y1="2" x2="60" y2="2" stroke="#7a5028" stroke-width="0.4" opacity="0.6"/>
      <line x1="0" y1="4" x2="60" y2="4" stroke="#7a5028" stroke-width="0.3" opacity="0.4"/>
      <line x1="20" y1="0" x2="22" y2="6" stroke="#5a3a18" stroke-width="0.4" opacity="0.5"/>
      <line x1="42" y1="0" x2="40" y2="6" stroke="#5a3a18" stroke-width="0.3" opacity="0.4"/>
    </pattern>
    <radialGradient id="sunGC" cx="50%" cy="50%" r="50%">
      <stop offset="0%" stop-color="#fff8e0"/>
      <stop offset="40%" stop-color="#fdd078" stop-opacity="0.7"/>
      <stop offset="100%" stop-color="#f0967a" stop-opacity="0"/>
    </radialGradient>
    <filter id="shadowGC">
      <feGaussianBlur stdDeviation="4"/>
    </filter>
  </defs>

  <rect width="800" height="500" fill="url(#skyGC)"/>
  <circle cx="600" cy="180" r="180" fill="url(#sunGC)"/>
  <circle cx="600" cy="180" r="50" fill="#fff8e0" opacity="0.9"/>

  <g fill="#7a4a52" opacity="0.7">
    <path d="M 0 290 L 80 250 L 160 290 L 240 250 L 320 280 L 400 245 L 480 285 L 560 250 L 640 285 L 720 255 L 800 280 L 800 320 L 0 320 Z"/>
  </g>

  <rect x="0" y="305" width="800" height="195" fill="url(#groundGC)"/>
  <g fill="#5a4628" opacity="0.6">
    <ellipse cx="100" cy="340" rx="50" ry="3"/>
    <ellipse cx="280" cy="365" rx="40" ry="2"/>
    <ellipse cx="500" cy="345" rx="60" ry="3"/>
    <ellipse cx="700" cy="370" rx="55" ry="3"/>
  </g>
  <g fill="#3a2a18" opacity="0.7">
    <rect x="40" y="320" width="3" height="2"/>
    <rect x="140" y="335" width="2" height="2"/>
    <rect x="220" y="350" width="3" height="2"/>
    <rect x="380" y="340" width="2" height="2"/>
    <rect x="600" y="328" width="3" height="2"/>
  </g>

  <g fill="#0a0a08" opacity="0.5">
    <path d="M 60 305 L 65 220 L 70 305 Z"/>
    <path d="M 130 305 L 138 200 L 144 305 Z"/>
    <path d="M 720 305 L 725 230 L 732 305 Z"/>
    <path d="M 770 305 L 775 240 L 782 305 Z"/>
  </g>

  <g stroke="#0a0a08" stroke-width="3" fill="none">
    <rect x="180" y="120" width="320" height="180"/>
    <line x1="180" y1="120" x2="180" y2="300"/>
    <line x1="220" y1="120" x2="220" y2="300"/>
    <line x1="260" y1="120" x2="260" y2="300"/>
    <line x1="300" y1="120" x2="300" y2="300"/>
    <line x1="340" y1="120" x2="340" y2="300"/>
    <line x1="380" y1="120" x2="380" y2="300"/>
    <line x1="420" y1="120" x2="420" y2="300"/>
    <line x1="460" y1="120" x2="460" y2="300"/>
    <line x1="180" y1="160" x2="500" y2="160"/>
    <line x1="180" y1="220" x2="500" y2="220"/>
    <line x1="180" y1="260" x2="500" y2="260"/>
  </g>

  <g fill="url(#concreteGC)">
    <rect x="60" y="295" width="240" height="14"/>
  </g>
  <g fill="#3a3630" opacity="0.5">
    <rect x="60" y="295" width="240" height="3"/>
  </g>
  <g stroke="#3a3630" stroke-width="0.5" opacity="0.5">
    <line x1="100" y1="295" x2="100" y2="309"/>
    <line x1="180" y1="295" x2="180" y2="309"/>
    <line x1="260" y1="295" x2="260" y2="309"/>
  </g>

  <g transform="translate(560 130)">
    <rect x="0" y="0" width="180" height="170" fill="none" stroke="#3a3a38" stroke-width="2"/>
    <line x1="0" y1="0" x2="0" y2="170" stroke="#3a3a38" stroke-width="2"/>
    <line x1="60" y1="0" x2="60" y2="170" stroke="#3a3a38" stroke-width="2"/>
    <line x1="120" y1="0" x2="120" y2="170" stroke="#3a3a38" stroke-width="2"/>
    <line x1="180" y1="0" x2="180" y2="170" stroke="#3a3a38" stroke-width="2"/>
    <line x1="0" y1="40" x2="180" y2="40" stroke="#3a3a38" stroke-width="2"/>
    <line x1="0" y1="80" x2="180" y2="80" stroke="#3a3a38" stroke-width="2"/>
    <line x1="0" y1="120" x2="180" y2="120" stroke="#3a3a38" stroke-width="2"/>
    <line x1="0" y1="0" x2="180" y2="170" stroke="#3a3a38" stroke-width="1.5" opacity="0.7"/>
    <line x1="180" y1="0" x2="0" y2="170" stroke="#3a3a38" stroke-width="1.5" opacity="0.7"/>
  </g>
  <rect x="555" y="295" width="190" height="6" fill="#1a1a18"/>
  <rect x="555" y="295" width="190" height="2" fill="#5a5a58"/>

  <g transform="translate(360 380)">
    <ellipse cx="0" cy="60" rx="160" ry="14" fill="#000" opacity="0.45" filter="url(#shadowGC)"/>
    <path d="M -140 30 Q -140 -88, 0 -88 Q 140 -88, 140 30 Z" fill="url(#hatGC)" stroke="#7a4810" stroke-width="3"/>
    <path d="M -140 30 Q -140 -88, 0 -88 Q 140 -88, 140 30 Z" fill="#000" opacity="0.0"/>
    <ellipse cx="0" cy="-88" rx="140" ry="22" fill="#000" opacity="0.0"/>
    <rect x="-160" y="20" width="320" height="22" rx="6" fill="url(#hatGC)" stroke="#7a4810" stroke-width="3"/>
    <rect x="-160" y="20" width="320" height="6" fill="#fde088" opacity="0.7"/>
    <rect x="-26" y="-88" width="52" height="118" fill="#7a4810" opacity="0.45"/>
    <rect x="-92" y="-62" width="22" height="92" fill="#7a4810" opacity="0.45"/>
    <rect x="70" y="-62" width="22" height="92" fill="#7a4810" opacity="0.45"/>
    <rect x="-26" y="-88" width="52" height="118" fill="none" stroke="#5a3010" stroke-width="0.5" opacity="0.5"/>
    <ellipse cx="-65" cy="-65" rx="34" ry="20" fill="#fff" opacity="0.18"/>
    <ellipse cx="-30" cy="-78" rx="20" ry="10" fill="#fff" opacity="0.22"/>
    <path d="M -22 -82 L -22 -100 L 22 -100 L 22 -82" fill="none" stroke="#1a1a18" stroke-width="2"/>
    <path d="M -22 -100 L 0 -110 L 22 -100" fill="none" stroke="#1a1a18" stroke-width="2"/>
    <rect x="-18" y="-104" width="36" height="6" fill="#7a4810"/>
    <text x="0" y="-99" text-anchor="middle" font-family="Arial,sans-serif" font-size="5" font-weight="800" fill="#fde088">SAFETY 1ST</text>
  </g>

  <g transform="translate(140 360) rotate(-22)">
    <rect x="0" y="-7" width="180" height="14" rx="3" fill="#7a4810"/>
    <rect x="0" y="-7" width="180" height="3" fill="#a06820"/>
    <rect x="170" y="-22" width="60" height="44" rx="4" fill="url(#metalGC)" stroke="#1a1a18" stroke-width="2"/>
    <path d="M 170 -22 L 200 -28 L 230 -22 L 230 22 L 200 28 L 170 22 Z" fill="url(#metalGC)" stroke="#1a1a18" stroke-width="2"/>
    <path d="M 200 -28 L 200 28" stroke="#1a1a18" stroke-width="1.5"/>
    <rect x="170" y="-22" width="60" height="6" fill="#fff" opacity="0.3"/>
    <path d="M 230 -8 L 250 -14 L 250 14 L 230 8 Z" fill="url(#metalGC)" stroke="#1a1a18" stroke-width="1.5"/>
  </g>

  <g transform="translate(540 410) rotate(28)">
    <rect x="0" y="-6" width="140" height="12" rx="3" fill="#1a1a18"/>
    <rect x="0" y="-6" width="140" height="2" fill="#3a3a38"/>
    <rect x="0" y="-6" width="40" height="12" fill="#d4302a"/>
    <rect x="0" y="-6" width="40" height="2" fill="#f86b6b"/>
    <circle cx="140" cy="0" r="26" fill="url(#metalGC)" stroke="#1a1a18" stroke-width="2"/>
    <circle cx="140" cy="0" r="22" fill="none" stroke="#5a5a58" stroke-width="0.8"/>
    <circle cx="140" cy="0" r="12" fill="#3a3a38"/>
    <circle cx="140" cy="0" r="6" fill="#1a1a18"/>
    <path d="M 140 -26 L 150 -16 L 160 -22 M 140 -26 L 130 -16 L 120 -22" stroke="#3a3a38" stroke-width="1.5" fill="none"/>
  </g>

  <g transform="translate(80 430) rotate(8)">
    <rect x="0" y="0" width="240" height="50" fill="url(#grainGC)" stroke="#5a3a18" stroke-width="1.5"/>
    <rect x="0" y="0" width="240" height="6" fill="#7a5028"/>
    <rect x="0" y="6" width="240" height="2" fill="#fff" opacity="0.4"/>
    <line x1="80" y1="0" x2="80" y2="50" stroke="#5a3a18" stroke-width="0.6" opacity="0.6"/>
    <line x1="160" y1="0" x2="160" y2="50" stroke="#5a3a18" stroke-width="0.6" opacity="0.6"/>
    <rect x="-2" y="20" width="244" height="3" fill="#5a3a18" opacity="0.5"/>
    <rect x="-2" y="34" width="244" height="3" fill="#5a3a18" opacity="0.5"/>
  </g>

  <g transform="translate(620 400) rotate(-12)">
    <rect x="0" y="0" width="120" height="80" fill="#f8efd4" stroke="#7a6840" stroke-width="2"/>
    <rect x="0" y="0" width="120" height="6" fill="#7a6840" opacity="0.3"/>
    <g stroke="#5a78a8" stroke-width="0.8" fill="none" opacity="0.85">
      <rect x="10" y="14" width="100" height="58" fill="none"/>
      <line x1="10" y1="30" x2="110" y2="30"/>
      <line x1="10" y1="46" x2="110" y2="46"/>
      <line x1="10" y1="62" x2="110" y2="62"/>
      <line x1="40" y1="14" x2="40" y2="72"/>
      <line x1="70" y1="14" x2="70" y2="72"/>
    </g>
    <text x="60" y="11" text-anchor="middle" font-family="Arial,sans-serif" font-size="5" fill="#5a78a8">BLUEPRINT — FLOOR PLAN</text>
  </g>

  <g transform="translate(450 480) rotate(-4)">
    <rect x="0" y="-5" width="100" height="10" fill="#d4d4d2"/>
    <rect x="0" y="-5" width="100" height="3" fill="#fff"/>
    <g stroke="#1a1a18" stroke-width="0.8">
      <line x1="6" y1="-5" x2="6" y2="5"/>
      <line x1="14" y1="-5" x2="14" y2="2"/>
      <line x1="22" y1="-5" x2="22" y2="2"/>
      <line x1="30" y1="-5" x2="30" y2="2"/>
      <line x1="38" y1="-5" x2="38" y2="5"/>
      <line x1="46" y1="-5" x2="46" y2="2"/>
      <line x1="54" y1="-5" x2="54" y2="2"/>
      <line x1="62" y1="-5" x2="62" y2="2"/>
      <line x1="70" y1="-5" x2="70" y2="5"/>
      <line x1="78" y1="-5" x2="78" y2="2"/>
      <line x1="86" y1="-5" x2="86" y2="2"/>
      <line x1="94" y1="-5" x2="94" y2="2"/>
    </g>
  </g>

  <g fill="#fde088" opacity="0.15" stroke="#fff" stroke-width="0.5">
    <ellipse cx="540" cy="220" rx="120" ry="40"/>
  </g>
</svg>
